<svg width="40" height="50" viewBox="0 0 40 50" fill="none" xmlns="http://www.w3.org/2000/svg">
<path d="M7.90909 2.07388C8.07846 1.51801 8.43615 1.0289 8.92814 0.680407C9.42014 0.331911 10.0197 0.14295 10.6364 0.14206H29.3902C29.8493 0.141702 30.3016 0.245668 30.7085 0.445058C31.1154 0.644448 31.4647 0.933319 31.7265 1.28693C31.9882 1.64055 32.1547 2.04838 32.2115 2.47549C32.2684 2.9026 32.214 3.33627 32.053 3.73936L27.8106 14.3466H36.1364C36.6913 14.3468 37.234 14.4993 37.6975 14.7853C38.161 15.0713 38.525 15.4784 38.7446 15.9561C38.9641 16.4339 39.0296 16.9615 38.933 17.4738C38.8363 17.9861 38.5818 18.4606 38.2008 18.8388L7.51515 49.3004C7.22783 49.5863 6.84752 49.7747 6.43376 49.8363C6.02 49.8979 5.59614 49.8291 5.22852 49.6408C4.86089 49.4524 4.57026 49.1551 4.40211 48.7954C4.23396 48.4356 4.19778 48.0338 4.29924 47.6527L9.39394 28.5511H3.60606C3.16608 28.5516 2.73201 28.4563 2.33804 28.2726C1.94408 28.089 1.60099 27.8221 1.33583 27.4929C1.07067 27.1638 0.890687 26.7814 0.810058 26.3759C0.72943 25.9704 0.750364 25.5529 0.871211 25.1563L7.90909 2.07388ZM11.3561 3.6932L4.85606 25H11.8182C12.1059 25.0001 12.3898 25.0616 12.6483 25.1799C12.9068 25.2982 13.1332 25.4701 13.3103 25.6827C13.4874 25.8952 13.6105 26.1428 13.6703 26.4066C13.73 26.6705 13.7249 26.9436 13.6553 27.2053L9.73485 41.9283L33.9394 17.8977H25.0758C24.7696 17.8977 24.468 17.8282 24.1968 17.6949C23.9256 17.5617 23.6929 17.3688 23.5186 17.1328C23.3443 16.8968 23.2337 16.6247 23.1961 16.3399C23.1586 16.055 23.1953 15.7658 23.303 15.4972L28.0265 3.6932H11.3523H11.3561Z" fill="black"/>
</svg>
